<?xml version="1.0" encoding="utf-8"?>
<!DOCTYPE svg PUBLIC "-//W3C//DTD SVG 1.1//EN" "http://www.w3.org/Graphics/SVG/1.1/DTD/svg11.dtd" [
	<!ENTITY ns_flows "http://ns.adobe.com/Flows/1.0/">
]>
<svg version="1.1"
	 xmlns="http://www.w3.org/2000/svg" xmlns:xlink="http://www.w3.org/1999/xlink" xmlns:a="http://ns.adobe.com/AdobeSVGViewerExtensions/3.0/"
	 x="0px" y="0px" width="471px" height="1417px" viewBox="0.348 0 471 1417"
	 overflow="visible" enable-background="new 0.348 0 471 1417" xml:space="preserve">
<defs>
</defs>
<g>
	<defs>
		<rect id="SVGID_1_" x="0.348" width="470.64" height="1417.44"/>
	</defs>
	<clipPath id="SVGID_2_">
		<use xlink:href="#SVGID_1_"  overflow="visible"/>
	</clipPath>
	<g id="YYHMA1_2_" clip-path="url(#SVGID_2_)">
		<g>
			<path fill-rule="evenodd" clip-rule="evenodd" fill="#981F20" d="M85.168,0c0.333,0,0.667,0,1,0c-0.666,28.667,1.333,59.999-1,87
				C85.168,58,85.168,29,85.168,0z"/>
			<path fill-rule="evenodd" clip-rule="evenodd" fill="#100D0E" d="M137.168,0c0.333,0,0.667,0,1,0c-0.666,29,1.333,60.666-1,88
				C137.168,58.667,137.168,29.333,137.168,0z"/>
			<path fill-rule="evenodd" clip-rule="evenodd" fill="#100D0E" d="M145.168,0c0.333,0,0.667,0,1,0c0,49,0,98,0,147
				c-2.324-6.343-0.341-16.993-1-25C145.168,81.334,145.168,40.667,145.168,0z"/>
			<path fill-rule="evenodd" clip-rule="evenodd" fill="#EC332D" d="M333.168,0c0.333,0,0.666,0,1,0c0,32,0,64,0,96
				C331.684,65.756,333.897,33.561,333.168,0z"/>
			<path fill-rule="evenodd" clip-rule="evenodd" fill="#FAC9C9" d="M348.168,101c0-0.333,0-0.667,0-1
				c19.668,0.665,41.998-1.332,60,1C388.168,101,368.167,101,348.168,101z"/>
			<path fill-rule="evenodd" clip-rule="evenodd" fill="#EE312E" d="M1.168,0c17,0,34,0,51,0c0,15.769,0,36.963,0,56
				c0,18.123-4.404,40.091,12,44c10.36,2.903,19.895-3.347,21-13c2.333-27.001,0.334-58.333,1-87c17,0,34,0,51,0
				c0,29.333,0,58.667,0,88c-0.959,49.091-60.97,74.39-106,50c-14.54-10.126-27.354-21.979-30-44C1.168,62.667,1.168,31.334,1.168,0
				z"/>
			<path fill-rule="evenodd" clip-rule="evenodd" d="M65.168,0c6.667,0,13.333,0,20,0c0,29,0,58,0,87
				c-1.105,9.653-10.64,15.903-21,13c2.473-10.271,0.048-25.135,0-34c-0.111-20.264,1-38.124,1-63C65.168,2,65.168,1,65.168,0z"/>
			<path fill-rule="evenodd" clip-rule="evenodd" fill="#010101" d="M64.168,100c-16.404-3.909-12-25.877-12-44
				c0-19.037,0-40.231,0-56c4.333,0,8.667,0,13,0c0,1,0,2,0,3c0,24.876-1.111,42.736-1,63C64.216,74.866,66.641,89.73,64.168,100z"
				/>
			<path fill-rule="evenodd" clip-rule="evenodd" fill="#010101" d="M138.168,0c2.333,0,4.667,0,7,0c0,40.667,0,81.333,0,122
				c-7.978,20.377-37.569,35.925-59,37c-23.242,1.166-41.487-7.109-55-21c45.03,24.39,105.041-0.909,106-50
				C139.5,60.667,137.502,29.001,138.168,0z"/>
			<path fill-rule="evenodd" clip-rule="evenodd" d="M31.168,138c13.513,13.891,31.758,22.166,55,21
				c21.431-1.075,51.022-16.623,59-37c0.659,8.007-1.324,18.657,1,25c2.367,2.3,8.975,0.358,13,1c1.48,4.354-0.899,6.708,1,11
				c31.15-0.463,59.67,0.201,80-1c-5.61,50.724-43.559,69.109-43,126c-0.355,13.688,1.555,25.112,5,35
				c2.786,18.554,10.846,37.53,18,57c7,19.052,17.478,37.342,21,54c4.646,21.977-13.92,30.405-25,43
				c-19.456,0.211-35.488,3.845-49,10c-8.955,22.996,10.719,32.771,9,55c3.78,3.062,8.716-1.246,14,0c0.851-0.184,0.943,0.39,1,1
				c-5.157,0.843-8.86,3.14-15,3c-3.482,6.519-7.335,12.665-13,17c-0.89,0.443-1.789,0.878-2,2c-5.384,3.616-10.886,7.114-15,12
				c-8.849,5.201-11.996,20.734-2,27c12.297,8.965,26.978,39.002,7,51c-0.132,10.132,2.692,17.308,3,27
				c25.738-10.608,59.877-1.636,86-9c27.096-7.639,43.521-33.125,68-41c2.952,7.391-19.908,21.682-32,29
				c-15.316,9.269-31.598,17.192-38,25c-1.643,2.003,4.757,5.825-4,4c-1.388,1.131,5.909,2.034,9,2c-18.704,3.296-37.958,6.042-59,7
				c9.353,25.912-14.874,44.411-15,62c-0.081,11.289,11.443,30.017,19,37c14.772,13.651,38.456,18.774,60,20
				c94.415,5.37,179.34-28.143,223-68c0,5.333,0,10.667,0,16c-17.536,23.435-42.465,37.062-75,47
				c-31.093,9.496-68.496,13.984-104,18c-18.681,2.112-38.368,3.43-56-2c-10.478,29.522-37.674,42.325-73,47
				c1.86,5.379,8.676,7.586,13,10c15.391,8.594,30.995,18.476,48,27c22.906,11.481,48.337,18.033,80,20
				c54.078,3.359,109.315-12.09,167-8c0,11.667,0,23.333,0,35c-156.998,0-314.003,0-471,0c0-287.33,0-574.673,0-862
				c0.333,0,0.667,0,1,0C3.814,116.021,16.628,127.874,31.168,138z M180.168,791c-4.336-6.186-13.586-15.756-16-22
				c-10.634-27.517,19.665-47.622,12-69c-3.515-9.804-20.028-14.516-24-23c-3.023-6.458-1.791-18.03-2-26
				c-7.67,3.492-17.259,14.416-19,25c-3.469,21.083,11.257,26.682,18,38c21.202,35.59-5.318,71.043-30,86
				c-19.291,11.69-43.167,13.112-60,27c21.57,7.838,48.173,19.577,70,30c8.157,3.896,16.301,10.275,23,11
				c16.272,1.759,34.557-7.095,47-13c14.454-6.86,25.912-14.586,29-31C202.384,817.073,192.313,808.327,180.168,791z"/>
			<path fill-rule="evenodd" clip-rule="evenodd" fill="#EE312E" d="M146.168,0c34,0,68,0,102,0c-0.185,0.851,0.39,0.943,1,1
				c1.382,2.951,4.617,4.049,6,7c8.966,10.745,12.126,34.927,4,49c7.566,11.935,18.109,27.554,14,50
				c-4.037,22.048-28.447,38.08-52,40c-25,0-50,0-75,0C146.168,98,146.168,49,146.168,0z M198.168,42c7.326,0.326,14.33,0.33,13-8
				c-1.435-4.231-7.046-4.287-13-4C198.168,34,198.168,38,198.168,42z M198.168,100c9.892-0.988,21.294,2.812,23-4
				c2.373-9.478-12.108-6.714-23-7C198.168,92.667,198.168,96.334,198.168,100z"/>
			<path fill-rule="evenodd" clip-rule="evenodd" fill="#EE312E" d="M283.168,0c16.666,0,33.333,0,50,0
				c0.729,33.56-1.484,65.755,1,96c2.143,3.523,6.647,4.686,13,4c-0.185,0.851,0.39,0.943,1,1c19.999,0,40,0,60,0c0,4,0,8,0,12
				c0,3.667,0,7.333,0,11c0,7.667,0,15.333,0,23c-25.667,0-51.334,0-77,0c-8.693,0.348-17.378-4.606-22-5
				c-9.083-7.584-17.936-15.398-24-26c-2.85-8.15-3.442-18.558-3-30C284.5,59.333,282.502,28.334,283.168,0z"/>
			<path fill-rule="evenodd" clip-rule="evenodd" fill="#010101" d="M221.168,147c23.553-1.92,47.963-17.952,52-40
				c4.109-22.446-6.434-38.065-14-50c8.126-14.073,4.966-38.255-4-49c18.225,8.139,27.282,40.486,16,63
				c4.212,4.121,7.551,9.116,11,14c0,0.333,0,0.667,0,1c-0.442,11.442,0.15,21.85,3,30c-4.945,24.056-21.984,36.017-45,42
				c-20.331,1.201-48.85,0.537-80,1c-1.899-4.292,0.48-6.646-1-11C179.502,147.335,202.5,149.332,221.168,147z"/>
			<path fill-rule="evenodd" clip-rule="evenodd" fill="#010101" d="M198.168,30c5.954-0.287,11.565-0.231,13,4
				c1.33,8.33-5.674,8.326-13,8C198.168,38,198.168,34,198.168,30z"/>
			<path fill-rule="evenodd" clip-rule="evenodd" fill="#010101" d="M198.168,89c10.892,0.286,25.373-2.478,23,7
				c-1.706,6.812-13.108,3.012-23,4C198.168,96.334,198.168,92.667,198.168,89z"/>
			<path fill-rule="evenodd" clip-rule="evenodd" fill="#010101" d="M309.168,142c4.622,0.394,13.307,5.348,22,5
				c23.667,2.332,51.665,0.334,77,1c1.664-5.684,1.664-18.316,0-24c0-3.667,0-7.333,0-11c4.024,0.642,10.633-1.3,13,1
				c0,15,0,30,0,45C379.981,157.187,327.595,166.573,309.168,142z"/>
			<path fill-rule="evenodd" clip-rule="evenodd" fill="#361515" d="M408.168,124c1.664,5.684,1.664,18.316,0,24
				c-25.335-0.666-53.333,1.332-77-1c25.666,0,51.333,0,77,0C408.168,139.334,408.168,131.667,408.168,124z"/>
			<path fill-rule="evenodd" clip-rule="evenodd" d="M471.168,214c-17.593-12.575-31.924-21.318-57-23
				c-79.534-5.333-104.995,50.157-151,77c0.714-6.408,10.53-9.597,3-13c34.146-33.52,76.097-59.236,121-82
				c0.148,1.332-4.066,3.018-1,4c12.395-8.917,39.087-3.224,52-2c-4.79-1.543-10.057-2.611-14-5c24.405-5.373,37.27,9.372,47,22
				C471.168,199.334,471.168,206.667,471.168,214z"/>
			<path fill-rule="evenodd" clip-rule="evenodd" d="M398.168,326c15.301,5.276,35.869,9.795,56,7c-1.915,6.085-15.062,0.938-20,4
				c3.092,4.241,13.695,0.971,20,2c-8.756,5.245-20.412,7.588-35,7c2.09,1.909,4.774,3.225,8,4c-7.521,0.607-15.348,2.157-17,7
				c-5.707,0.373-8.848-1.819-12-4c-3.904,2.763-8.544,4.79-13,7c-1.71-2.755,7.1-3.533,5-10c-2.557,5.444-7.372,8.629-13,11
				c-1.712-0.955-2.015-3.319-4-4c-11.164,6.007-27.994-3.901-35,4c-3.444-3.556-9.275-4.725-11-10c-2.265,2.981,3.044,6.918,6,8
				c-4.277,1.583-10.507-3.473-14-6c-3.862,2.138-7.124,4.876-14,4c6.606-4.608-7.042-0.883-5-7c-2.632,1.036-6.137,1.197-10,1
				c1.387-2.613,5.166-2.833,8-4c-13.513-0.821-25.562-3.104-36-7c4.785-2.881,16.178,0.845,21-2c-3.65-4.684-17.213,0.545-21-4
				c9.098-0.162,23.939,0.156,34-2c-0.143-32.809,7.375-57.958,35-63c-0.955,17.414-7.086,38.222-7,60
				c21.599-7.367,54.348-6.088,74,2C396.294,329.096,398.058,328.488,398.168,326z M349.168,353c1.06,6.072,17.797,5.593,19,0
				C361.162,353.713,355.98,354.296,349.168,353z"/>
			<path fill-rule="evenodd" clip-rule="evenodd" fill="#181616" d="M246.168,318c-0.979-8.748,4.889-16.174,13-25
				c0.28,5.297-8.269,10.387-11,16c2.4,0.697,6.599-5.373,9-8C256.833,306.013,248.043,311.198,246.168,318z"/>
			<path fill-rule="evenodd" clip-rule="evenodd" d="M450.168,499c-14.104,15.23-35.353,23.314-47,41
				C408.532,520.029,433.682,511.183,450.168,499z"/>
			<path fill-rule="evenodd" clip-rule="evenodd" fill="#010101" d="M437.168,514c-5.873,14.129-27.516,21.15-35,37
				c-2.149-10.038,9.183-14.953,15-20C424.078,525.005,430.484,518.716,437.168,514z"/>
			<path fill-rule="evenodd" clip-rule="evenodd" d="M455.168,512c-14.749,14.919-37.442,30.557-53,48
				C411.331,539.495,435.298,525.132,455.168,512z"/>
			<path fill-rule="evenodd" clip-rule="evenodd" d="M440.168,532c-2.333,13.337-23.243,16.754-28,31
				C412.458,547.621,432.066,542.901,440.168,532z"/>
			<path fill-rule="evenodd" clip-rule="evenodd" fill="#EE312E" d="M191.168,539c13.919-4.114,23.5,3.492,36,4
				c33.226,20.774,72.704,35.296,88,74c-3.613-1.721-8.754-1.913-12-4c-5.775-5.282-13.766-9.827-22-16
				c-6.943-5.205-12.736-13.651-20-17c-5.705-2.629-14.346-2.237-22-6c-16.516-8.118-31.077-20.695-60-18
				c-4.779,0.445-12.461,3.504-16,3c5.665-4.335,9.518-10.481,13-17C182.308,542.14,186.011,539.843,191.168,539z"/>
			<path fill-rule="evenodd" clip-rule="evenodd" fill="#671114" d="M163.168,559c3.539,0.504,11.221-2.555,16-3
				c28.923-2.695,43.484,9.882,60,18c7.654,3.763,16.295,3.371,22,6c7.264,3.349,13.057,11.795,20,17
				c8.234,6.173,16.225,10.718,22,16c-1.001,0-2,0-3,0c-4.754-0.58-9.222-1.445-15-1c-2.204-2.111,1.283-2.956,1-6
				c-25.17-18.502-56.271-35.017-104-25c-0.246,12.913,0.095,25.239,3,35c17.29,0.623,25.787-7.546,44-6
				c4.58,2.42,12.631,1.368,17,4c-6.043-1.033-3.929,3.483,1,2c0,0.333,0,0.667,0,1c-24.782-0.448-45.449,3.218-63,10
				c0.013-1.987,2.729-1.271,2-4c-6.412-0.745-10.166,1.167-16,1c3.789-3.877,9.359-5.974,14-9c-20.367-5.126-37.746-34.347-23-54
				C161.379,559.878,162.278,559.444,163.168,559z"/>
			<path fill-rule="evenodd" clip-rule="evenodd" fill="#EE312E" d="M161.168,561c-14.746,19.653,2.633,48.874,23,54
				c-4.641,3.026-10.211,5.123-14,9c5.834,0.167,9.588-1.745,16-1c0.729,2.729-1.987,2.013-2,4c17.551-6.782,38.218-10.448,63-10
				c13.113,2.884,28.164-0.334,41-1c10.644-0.644,19.688,0.311,25,5c-1.37,2.631-4.21,3.791-5,7c-24.479,7.875-40.904,33.361-68,41
				c-26.123,7.364-60.262-1.608-86,9c-0.308-9.692-3.132-16.868-3-27c19.978-11.998,5.297-42.035-7-51
				c2.836-6.485,4.335-18.556,2-27C150.282,568.114,155.784,564.617,161.168,561z"/>
			<path fill-rule="evenodd" clip-rule="evenodd" fill="#010101" d="M313.168,621c-5.312-4.689-14.356-5.644-25-5
				c1.615-3.384,11.96,1.96,12-3c1,0,1.999,0,3,0c3.246,2.087,8.387,2.279,12,4c1.124,1.875,3.875,2.124,5,4
				C318.833,622.427,314.502,622.427,313.168,621z"/>
			<path fill-rule="evenodd" clip-rule="evenodd" d="M403.168,1c0-0.333,0-0.667,0-1c22.666,0,45.333,0,68,0c0,14.667,0,29.333,0,44
				c-6.834,11.833-29.104,8.229-44,12c-1.357,0.31-0.83,2.504-1,4c11.04,4.626,30.637,0.696,45,2c0,8,0,16,0,24
				c-24.334,0-48.667,0-73,0c-2.199-30.186,1.153-52.095,25-56c6.787-1.111,24.02,4.278,27-5c-9.688-7.313-34.076,0.076-47-4
				C403.168,14.334,403.168,7.667,403.168,1z"/>
			<path fill-rule="evenodd" clip-rule="evenodd" fill="#616263" d="M427.168,56c0,1.333,0,2.667,0,4c12.67,2.33,29.664,0.336,44,1
				c-0.001,0.333,0,0.667,0,1c-14.363-1.304-33.96,2.626-45-2C426.338,58.504,425.811,56.31,427.168,56z"/>
			<path fill-rule="evenodd" clip-rule="evenodd" fill="#981F20" d="M0.168,94c0.666-31-1.333-64.666,1-94c0,31.333,0,62.667,0,94
				C0.834,94,0.501,94,0.168,94z"/>
			<path fill-rule="evenodd" clip-rule="evenodd" fill="#D1D1D1" d="M348.168,101c-0.61-0.057-1.185-0.149-1-1c0-33,0-66,0-99
				c0.333,0,0.666,0,1,0c0,33,0,66,0,99C348.168,100.333,348.168,100.667,348.168,101z"/>
			<path fill-rule="evenodd" clip-rule="evenodd" fill="#361515" d="M146.168,147c25,0,50,0,75,0c-18.668,2.332-41.666,0.334-62,1
				C155.143,147.359,148.535,149.3,146.168,147z"/>
			<path fill-rule="evenodd" clip-rule="evenodd" fill="#5B4D39" d="M197.168,284c4.84,8.494,5.459,21.207,5,35
				C198.723,309.113,196.813,297.689,197.168,284z"/>
			<path fill-rule="evenodd" clip-rule="evenodd" d="M247.168,486c-4.368-0.701-5.633,1.701-10,1c-1.027-3.36,3.109-1.557,5-2
				c-3.098-6.569-13.207-6.127-20-9c1.046-4.621,6.989-4.344,6-11C238.602,467.899,248.671,471.164,247.168,486z"/>
			<path fill-rule="evenodd" clip-rule="evenodd" fill="#5B4D39" d="M176.168,517c3.795-6.205,5.972-14.028,7-23
				c1.151-3.235,1.132,2.686,1,4c2.701-0.299,1.793-4.207,4-5c14.491,6.182,8.422,30.009-6,32
				C179.341,522.833,181.046,514.217,176.168,517z"/>
			<path fill-rule="evenodd" clip-rule="evenodd" fill="#010101" d="M190.168,538c12.782-2.775,28.561,0.1,37,5
				c-12.5-0.508-22.081-8.114-36-4C191.111,538.391,191.019,537.816,190.168,538z"/>
			<path fill-rule="evenodd" clip-rule="evenodd" fill="#434445" d="M398.168,86c24.333,0,48.666,0,73,0c-0.001,0.333,0,0.667,0,1
				C447.167,86.334,420.502,88.333,398.168,86z"/>
			<path fill-rule="evenodd" clip-rule="evenodd" fill="#010101" d="M334.168,0c4.333,0,8.666,0,13,0c0,0.333,0,0.667,0,1
				c0,33,0,66,0,99c-6.353,0.686-10.857-0.477-13-4C334.168,64,334.168,32,334.168,0z"/>
			<path fill-rule="evenodd" clip-rule="evenodd" d="M250.168,491c18.703-6.704,32.227-40.29,15-59
				C288.059,443.42,289.566,496.791,250.168,491z"/>
			<path fill-rule="evenodd" clip-rule="evenodd" d="M413.168,520c6.811-14.524,26.545-24.786,41-35
				C447.332,499.5,424.696,506.86,413.168,520z"/>
			<path fill-rule="evenodd" clip-rule="evenodd" d="M229.168,610c-18.213-1.546-26.71,6.623-44,6c-2.905-9.761-3.246-22.087-3-35
				c47.729-10.017,78.831,6.498,104,25c0.283,3.044-3.204,3.889-1,6c5.778-0.445,10.246,0.42,15,1c-0.04,4.96-10.385-0.384-12,3
				c-12.836,0.666-27.887,3.884-41,1c0-0.333,0-0.667,0-1c-4.929,1.483-7.043-3.033-1-2c6.522-0.811,16.581,1.916,20-2
				c-0.751-1.344-7.3-1.906-5-3c7.792,0.208,12.365,3.634,21,3c-17.045-24.701-55.275-35.178-98-28c-0.052,10.718,2.052,19.282,2,30
				c12.29-2.426,32.92-7.014,44-4C229.834,610,229.501,610,229.168,610z"/>
			<path fill-rule="evenodd" clip-rule="evenodd" fill="#828283" d="M347.168,0c18.666,0,37.333,0,56,0c0,0.333,0,0.667,0,1
				c-18.334,0-36.667,0-55,0c-0.334,0-0.667,0-1,0C347.168,0.667,347.168,0.334,347.168,0z"/>
			<path fill-rule="evenodd" clip-rule="evenodd" fill="#F38685" d="M283.168,0c-0.666,28.334,1.332,59.333-1,86
				c0-0.333,0-0.667,0-1c0-28,0-56,0-84c-11,0-22,0-33,0c-0.61-0.057-1.185-0.149-1-1C259.834,0,271.501,0,283.168,0z"/>
		</g>
	</g>
</g>
</svg>
